<svg width="28" height="28" viewBox="0 0 28 28" fill="none" xmlns="http://www.w3.org/2000/svg">
<path fill-rule="evenodd" clip-rule="evenodd" d="M11.3075 7.0004C11.3075 6.82818 11.3947 6.4624 11.7486 6.13472C12.0904 5.81824 12.7518 5.47476 13.9998 5.47476C15.2478 5.47476 15.9093 5.81824 16.2511 6.13472C16.605 6.4624 16.6921 6.82818 16.6921 7.0004H18.3075C18.3075 6.39484 18.0447 5.59395 17.3486 4.94941C16.6404 4.29367 15.5518 3.85938 13.9998 3.85938C12.4478 3.85938 11.3593 4.29367 10.6511 4.94941C9.95497 5.59395 9.69214 6.39484 9.69214 7.0004H11.3075ZM11.3075 7.00042V8.82062H16.6921V7.00042H18.3075V8.82062H21.0819C21.5279 8.82062 21.8896 9.18224 21.8896 9.62831V20.6614C21.8896 21.2958 21.6355 21.9028 21.1853 22.3494C20.7353 22.7957 20.1264 23.0453 19.4929 23.0453H8.37006C7.73652 23.0453 7.12763 22.7957 6.67767 22.3494C6.2275 21.9028 5.97339 21.2958 5.97339 20.6614V9.62831C5.97339 9.18224 6.335 8.82062 6.78108 8.82062H9.69214V7.00042H11.3075ZM9.69214 12.8338V10.436H7.58877V20.6614C7.58877 20.8631 7.66948 21.0579 7.81529 21.2025C7.96131 21.3474 8.16075 21.4299 8.37006 21.4299H19.4929C19.7022 21.4299 19.9016 21.3474 20.0477 21.2025C20.1935 21.0579 20.2742 20.8631 20.2742 20.6614V10.436H18.3075V12.8338H16.6921V10.436H11.3075V12.8338H9.69214Z"/>
</svg>
