<svg xmlns="http://www.w3.org/2000/svg" viewBox="0 0 18 18">
  <path fill-rule="evenodd" clip-rule="evenodd" d="M5.25 4.5C4.85218 4.5 4.47064 4.65804 4.18934 4.93934C3.90804 5.22064 3.75 5.60218 3.75 6V10.5C3.75 10.8978 3.90804 11.2794 4.18934 11.5607C4.47064 11.842 4.85217 12 5.25 12H6.75C6.94891 12 7.13968 12.079 7.28033 12.2197L9 13.9393L10.7197 12.2197C10.8603 12.079 11.0511 12 11.25 12H12.75C13.1478 12 13.5294 11.842 13.8107 11.5607C14.092 11.2794 14.25 10.8978 14.25 10.5V6C14.25 5.60217 14.092 5.22064 13.8107 4.93934C13.5294 4.65804 13.1478 4.5 12.75 4.5H5.25ZM3.12868 3.87868C3.69129 3.31607 4.45435 3 5.25 3H12.75C13.5456 3 14.3087 3.31607 14.8713 3.87868C15.4339 4.44129 15.75 5.20435 15.75 6V10.5C15.75 11.2956 15.4339 12.0587 14.8713 12.6213C14.3087 13.1839 13.5456 13.5 12.75 13.5H11.5607L9.53033 15.5303C9.23744 15.8232 8.76256 15.8232 8.46967 15.5303L6.43934 13.5H5.25C4.45435 13.5 3.69129 13.1839 3.12868 12.6213C2.56607 12.0587 2.25 11.2956 2.25 10.5V6C2.25 5.20435 2.56607 4.44129 3.12868 3.87868ZM5.25 6.75C5.25 6.33579 5.58579 6 6 6H12C12.4142 6 12.75 6.33579 12.75 6.75C12.75 7.16421 12.4142 7.5 12 7.5H6C5.58579 7.5 5.25 7.16421 5.25 6.75ZM6 9C5.58579 9 5.25 9.33579 5.25 9.75C5.25 10.1642 5.58579 10.5 6 10.5H10.5C10.9142 10.5 11.25 10.1642 11.25 9.75C11.25 9.33579 10.9142 9 10.5 9H6Z"/>
</svg>
