<svg width="20" height="20" viewBox="0 0 20 20" fill="none" xmlns="http://www.w3.org/2000/svg">
<path fill-rule="evenodd" clip-rule="evenodd" d="M13.7502 3.14294C12.9261 3.14294 12.1358 3.47029 11.5532 4.05297L12.0835 4.5833L11.5532 4.05297L10.7198 4.88631L2.80317 12.803C2.66251 12.9436 2.5835 13.1344 2.5835 13.3333V16.6666C2.5835 17.0808 2.91928 17.4166 3.3335 17.4166H6.66683C6.86574 17.4166 7.05651 17.3376 7.19716 17.197L15.1131 9.28104C15.1133 9.28079 15.1136 9.28054 15.1138 9.2803C15.1141 9.28005 15.1143 9.2798 15.1146 9.27955L15.9472 8.44696C16.5298 7.86428 16.8572 7.074 16.8572 6.24997C16.8572 5.42593 16.5298 4.63565 15.9472 4.05297C15.3645 3.47029 14.5742 3.14294 13.7502 3.14294ZM14.5835 7.68931L14.8865 7.3863C15.1879 7.08493 15.3572 6.67617 15.3572 6.24997C15.3572 5.82376 15.1879 5.415 14.8865 5.11363C14.5851 4.81226 14.1764 4.64294 13.7502 4.64294C13.3239 4.64294 12.9152 4.81226 12.6138 5.11363L12.3108 5.41663L14.5835 7.68931ZM11.2502 6.47729L4.0835 13.644V15.9166H6.35617L13.5228 8.74997L11.2502 6.47729Z"/>
</svg>
