<svg width="18" height="18" viewBox="0 0 18 18" fill="none" xmlns="http://www.w3.org/2000/svg">
<path fill-rule="evenodd" clip-rule="evenodd" d="M3.28849 4.82653C3.41343 4.5861 3.66475 4.42188 3.95443 4.42188H14.4544C14.7441 4.42188 14.9954 4.5861 15.1204 4.82653L9.20443 8.77049L3.28849 4.82653ZM1.70447 5.1575C1.70432 5.16571 1.70431 5.17393 1.70443 5.18213V12.6719C1.70443 13.9145 2.71178 14.9219 3.95443 14.9219H14.4544C15.6971 14.9219 16.7044 13.9145 16.7044 12.6719V5.18215M15.2044 6.57326V12.6719C15.2044 13.0861 14.8686 13.4219 14.4544 13.4219H3.95443C3.54021 13.4219 3.20443 13.0861 3.20443 12.6719V6.57326L8.7884 10.2959C9.04033 10.4639 9.36853 10.4639 9.62045 10.2959L15.2044 6.57326ZM16.7044 5.15748C16.6966 3.92146 15.6923 2.92188 14.4544 2.92188H3.95443C2.71658 2.92188 1.7122 3.92147 1.70447 5.1575"/>
</svg>
