<svg xmlns="http://www.w3.org/2000/svg" width="24" height="24"><path d="M9.582.246c.426-.086.848-.148 1.266-.191.43-.04.855-.059 1.273-.055.207 0 .383.148.418.352a.432.432 0 0 1-.27.476 7.983 7.983 0 0 0-4.093 3.637 7.952 7.952 0 0 0-.797 5.406v.012a7.991 7.991 0 0 0 3.434 5.062 7.966 7.966 0 0 0 6 1.157l.015-.004a7.935 7.935 0 0 0 3.965-2.106 8.01 8.01 0 0 0 2.21-3.937.432.432 0 0 1 .43-.332c.208.007.376.16.41.359a11.98 11.98 0 0 1-1.964 8.734 11.96 11.96 0 0 1-7.457 4.938 11.97 11.97 0 0 1-9.02-1.73A11.966 11.966 0 0 1 .25 14.417a11.949 11.949 0 0 1 1.613-8.836A11.965 11.965 0 0 1 9.371.293Zm0 0" style="stroke:none;fill-rule:nonzero;fill-opacity:1"/></svg>
