<svg width="94" height="80" viewBox="0 0 94 80" fill="none" xmlns="http://www.w3.org/2000/svg">
<path fill-rule="evenodd" clip-rule="evenodd" d="M17.948 68.0881C14.9647 68.7122 13.0548 71.6397 13.6856 74.6216C14.3144 77.5941 17.2306 79.4966 20.2044 78.8745L77.3889 66.912C80.3722 66.2879 82.2821 63.3604 81.6513 60.3785C81.0225 57.4061 78.1063 55.5036 75.1324 56.1257L17.948 68.0881Z"/>
<path fill-rule="evenodd" clip-rule="evenodd" d="M20.9614 28.1943C25.2923 32.5099 32.2979 32.5101 36.6291 28.1947L26.3981 18.0003L36.6291 7.80551L28.795 0L18.5644 10.1944L8.33344 0C4.01155 4.30634 4.01145 11.3048 8.33321 15.6113L10.7307 18.0003L4.43061 24.2779C2.26195 26.4388 2.26197 29.9506 4.43066 32.1115C6.58837 34.2614 10.0785 34.2614 12.2362 32.1114L18.5644 25.8058L20.9614 28.1943Z"/>
<path fill-rule="evenodd" clip-rule="evenodd" d="M85.6667 0L75.4357 10.1944L65.2051 0L57.3711 7.80551L67.6021 18.0003L61.3021 24.2778C59.1334 26.4387 59.1334 29.9506 61.3022 32.1115C63.46 34.2615 66.9502 34.2614 69.1078 32.1113L75.4357 25.8058L81.764 32.1114C83.9217 34.2614 87.4118 34.2614 89.5695 32.1115C91.7382 29.9506 91.7382 26.4388 89.5695 24.2779L83.2694 18.0003L93.5004 7.80551L85.6667 0Z"/>
</svg>
