<svg width="28" height="28" viewBox="0 0 28 28" fill="none" xmlns="http://www.w3.org/2000/svg">
<path fill-rule="evenodd" clip-rule="evenodd" d="M9.6574 9.33373C9.6574 7.20248 11.3851 5.47476 13.5164 5.47476C15.6476 5.47476 17.3753 7.20248 17.3753 9.33373C17.3753 11.465 15.6476 13.1927 13.5164 13.1927C11.3851 13.1927 9.6574 11.465 9.6574 9.33373ZM13.5164 3.85938C10.493 3.85938 8.04201 6.31033 8.04201 9.33373C8.04201 12.3571 10.493 14.8081 13.5164 14.8081C16.5398 14.8081 18.9907 12.3571 18.9907 9.33373C18.9907 6.31033 16.5398 3.85938 13.5164 3.85938ZM8.45293 19.3167C9.17663 18.593 10.1582 18.1864 11.1816 18.1864H15.8483C16.8718 18.1864 17.8533 18.593 18.577 19.3167C19.3007 20.0404 19.7073 21.022 19.7073 22.0454V24.3788C19.7073 24.8248 20.0689 25.1864 20.515 25.1864C20.961 25.1864 21.3227 24.8248 21.3227 24.3788V22.0454C21.3227 20.5935 20.7459 19.2011 19.7193 18.1745C18.6926 17.1478 17.3002 16.5711 15.8483 16.5711H11.1816C9.72974 16.5711 8.33732 17.1478 7.31068 18.1745C6.28404 19.2011 5.70728 20.5935 5.70728 22.0454V24.3788C5.70728 24.8248 6.06889 25.1864 6.51497 25.1864C6.96104 25.1864 7.32266 24.8248 7.32266 24.3788V22.0454C7.32266 21.022 7.72923 20.0404 8.45293 19.3167Z"/>
</svg>
