<svg width="28" height="28" viewBox="0 0 28 28" fill="none" xmlns="http://www.w3.org/2000/svg">
<path fill-rule="evenodd" clip-rule="evenodd" d="M5.72574 11.913C5.72574 8.56223 8.44211 5.84585 11.7929 5.84585C15.1437 5.84585 17.8601 8.56223 17.8601 11.913C17.8601 15.2639 15.1437 17.9802 11.7929 17.9802C8.44211 17.9802 5.72574 15.2639 5.72574 11.913ZM11.7929 4.23047C7.54996 4.23047 4.11035 7.67007 4.11035 11.913C4.11035 16.156 7.54996 19.5956 11.7929 19.5956C13.6237 19.5956 15.3049 18.9552 16.6247 17.8863L22.0259 23.2875C22.3413 23.6029 22.8527 23.6029 23.1681 23.2875C23.4836 22.972 23.4836 22.4606 23.1681 22.1452L17.7669 16.744C18.8354 15.4242 19.4755 13.7434 19.4755 11.913C19.4755 7.67007 16.0359 4.23047 11.7929 4.23047Z"/>
</svg>
