<svg xmlns="http://www.w3.org/2000/svg" width="24" height="24"><path style="stroke:none;fill-rule:nonzero;fill-opacity:1" d="M5.86 2.578a.762.762 0 0 1-.008-.773.769.769 0 0 1 1.336.008l.988 1.703a.77.77 0 0 1-.274 1.054.776.776 0 0 1-1.058-.273ZM12 5.118A6.882 6.882 0 1 1 6.273 15.82 6.886 6.886 0 0 1 12 5.117ZM11.387.78a.777.777 0 0 1 .375-.699.762.762 0 0 1 .793 0c.246.145.39.414.375.7v1.964a.762.762 0 0 1-.375.7.762.762 0 0 1-.793 0 .766.766 0 0 1-.371-.7V.781Zm5.699 1.192a.767.767 0 0 1 .672-.422.768.768 0 0 1 .687.39.77.77 0 0 1-.027.793l-.988 1.711a.767.767 0 0 1-.668.403.771.771 0 0 1-.66-1.168l.984-1.711Zm4.332 3.886a.77.77 0 0 1 1.05.282.76.76 0 0 1-.28 1.046l-1.708.993a.772.772 0 0 1-.78-1.332Zm1.809 5.532a.772.772 0 0 1 .703 1.168.777.777 0 0 1-.703.37h-1.973a.766.766 0 0 1-.7-.37.762.762 0 0 1 0-.793.762.762 0 0 1 .7-.375Zm-1.2 5.699c.25.129.41.387.414.668a.774.774 0 0 1-.39.683.782.782 0 0 1-.79-.02l-1.71-.991a.766.766 0 1 1 .762-1.328l1.71.984Zm-3.886 4.328c.214.371.09.84-.278 1.05a.764.764 0 0 1-1.05-.28l-.993-1.708a.77.77 0 0 1 1.328-.78l.993 1.71Zm-5.532 1.809a.777.777 0 0 1-.37.703.772.772 0 0 1-1.168-.703v-1.973a.762.762 0 0 1 .374-.7.762.762 0 0 1 .793 0 .766.766 0 0 1 .371.7Zm-5.699-1.2a.76.76 0 0 1-1.027.254.767.767 0 0 1-.301-1.02l.988-1.71a.771.771 0 0 1 1.364-.035.77.77 0 0 1-.036.797l-.988 1.71Zm-4.332-3.886a.762.762 0 0 1-1.047-.278.764.764 0 0 1 .282-1.05l1.703-.993a.773.773 0 1 1 .78 1.336l-1.71.985ZM.781 12.609a.766.766 0 0 1-.699-.37.762.762 0 0 1 0-.794.762.762 0 0 1 .7-.375h1.964a.762.762 0 0 1 .7.375.762.762 0 0 1 0 .793.766.766 0 0 1-.7.371Zm1.192-5.695a.767.767 0 0 1-.422-.672.768.768 0 0 1 .39-.687.77.77 0 0 1 .793.027l1.711.988a.767.767 0 0 1 .403.668.771.771 0 0 1-1.168.66Zm0 0"/></svg>
