<svg width="18" height="18" viewBox="0 0 18 18" fill="none" xmlns="http://www.w3.org/2000/svg">
<path d="M16.2273 2.93061C15.4773 3.29811 14.7423 3.44736 13.9773 3.67311C13.1365 2.72436 11.89 2.67186 10.6923 3.12036C9.49455 3.56886 8.71005 4.66536 8.7273 5.92311V6.67311C6.29355 6.73536 4.12605 5.62686 2.7273 3.67311C2.7273 3.67311 -0.409205 9.24786 5.7273 11.9231C4.3233 12.8584 2.92305 13.4891 1.22729 13.4231C3.7083 14.7754 6.41205 15.2404 8.7528 14.5609C11.4378 13.7809 13.6443 11.7686 14.491 8.75436C14.7436 7.83761 14.8691 6.8905 14.8638 5.93961C14.8623 5.75286 15.9963 3.86061 16.2273 2.92986V2.93061Z" stroke-width="1.5" stroke-linecap="round" stroke-linejoin="round"/>
</svg>
